#N canvas -9 -9 1920 976 16;
#N canvas 1022 244 450 652 two 0;
#X obj 74 6 inlet;
#X obj 74 35 metro 500;
#X obj 74 64 tgl 15 0 empty empty empty 17 7 0 10 -262144 -1 -1 0 1
;
#X obj 74 93 sel 0 1;
#X msg 74 122 55;
#X floatatom 74 151 5 0 0 0 - - -;
#X obj 74 179 outlet;
#X msg 120 122 67;
#X connect 0 0 1 0;
#X connect 1 0 2 0;
#X connect 2 0 3 0;
#X connect 3 0 4 0;
#X connect 3 1 7 0;
#X connect 4 0 5 0;
#X connect 5 0 6 0;
#X connect 7 0 5 0;
#X restore 1956 -24 pd two notes;
#X floatatom 1956 6 5 0 0 0 - - -;
#X obj 1956 -45 tgl 15 0 empty empty empty 17 7 0 10 -262144 -1 -1
0 1;
#N canvas -9 -9 1920 976 config 0;
#N canvas -9 -9 1920 976 Drums 0;
#X obj 813 576 bng 15 250 50 0 empty empty empty 17 7 0 10 -262144
-1 -1;
#N canvas 407 128 1022 719 snr 0;
#X obj 339 167 line~;
#X obj 232 471 *~;
#X msg 519 281 0.25;
#X obj 232 544 outlet~;
#X obj 577 3 inlet;
#X obj 408 297 inlet;
#X obj 618 329 inlet;
#X msg 676 271 0.25;
#X msg 347 90 1 \, 0 60;
#X obj 657 375 osc~ 380;
#X obj 443 375 osc~ 250;
#X obj 159 219 noise~;
#X obj 443 451 *~ 0.33;
#X connect 0 0 1 0;
#X connect 1 0 3 0;
#X connect 2 0 10 1;
#X connect 4 0 8 0;
#X connect 4 0 2 0;
#X connect 4 0 7 0;
#X connect 5 0 10 0;
#X connect 6 0 9 0;
#X connect 7 0 9 1;
#X connect 8 0 0 0;
#X connect 9 0 12 0;
#X connect 10 0 12 0;
#X connect 11 0 12 0;
#X connect 12 0 1 1;
#X restore 813 600 pd snr;
#X obj 1316 389 bng 15 250 50 0 empty empty empty 17 7 0 10 -262144
-1 -1;
#N canvas 206 112 1022 719 hat 0;
#X obj 339 167 line~;
#X obj 232 471 *~;
#X obj 232 544 outlet~;
#X obj 374 12 inlet;
#X obj 75 292 hip~ 3200;
#X obj 89 389 *~ 0.4;
#X obj 44 150 inlet;
#X obj 159 219 noise~;
#X msg 347 90 1 \, 0 20;
#X connect 0 0 1 0;
#X connect 1 0 2 0;
#X connect 3 0 8 0;
#X connect 4 0 5 0;
#X connect 5 0 1 1;
#X connect 6 0 4 0;
#X connect 7 0 4 0;
#X connect 8 0 0 0;
#X restore 1042 609 pd hat;
#N canvas 0 47 1022 719 count 0;
#X obj 203 117 f;
#X obj 340 133 + 1;
#X obj 202 197 mod 8;
#X obj 193 45 inlet;
#X obj 182 276 outlet;
#X connect 0 0 1 0;
#X connect 0 0 2 0;
#X connect 1 0 0 1;
#X connect 2 0 4 0;
#X connect 3 0 0 0;
#X restore 574 324 pd count;
#X obj 595 389 sel 0 1 2 3 4 5 6 7;
#X obj 1346 513 random 1000;
#X obj 624 173 inlet;
#X obj 651 228 metro 200;
#X obj 551 760 outlet~;
#N canvas -9 -9 1920 976 boop 0;
#X obj 339 167 line~;
#X obj 348 377 osc~;
#X obj 347 236 *~ 400;
#X obj 237 449 *~;
#X obj 354 305 +~;
#X msg 581 283 0.25;
#X obj 232 544 outlet~;
#X obj 349 -3 inlet;
#X obj 690 11 inlet;
#X obj 850 8 inlet;
#X msg 347 90 1 \, 0 \$1;
#X connect 0 0 3 0;
#X connect 0 0 2 0;
#X connect 1 0 3 1;
#X connect 2 0 4 0;
#X connect 3 0 6 0;
#X connect 4 0 1 0;
#X connect 5 0 1 1;
#X connect 7 0 10 0;
#X connect 7 0 5 0;
#X connect 8 0 2 1;
#X connect 9 0 4 1;
#X connect 10 0 0 0;
#X restore 516 609 pd boop;
#N canvas 0 50 1278 653 kick 0;
#X obj 339 167 line~;
#X obj 348 377 osc~;
#X obj 237 449 *~;
#X obj 232 544 outlet~;
#X obj 349 -3 inlet;
#X obj 690 11 inlet;
#X obj 850 8 inlet;
#X msg 347 90 1 \, 0 \$1;
#X obj 345 236 *~ 70;
#X obj 354 305 +~ 1;
#X msg 581 283 0.1;
#X connect 0 0 2 0;
#X connect 0 0 8 0;
#X connect 1 0 2 1;
#X connect 2 0 3 0;
#X connect 4 0 7 0;
#X connect 4 0 10 0;
#X connect 5 0 8 1;
#X connect 6 0 9 1;
#X connect 7 0 0 0;
#X connect 8 0 9 0;
#X connect 9 0 1 0;
#X connect 10 0 1 1;
#X restore 285 637 pd kick;
#X msg 421 464 82;
#X msg 208 515 80;
#X msg 288 528 600;
#X msg 612 464 400;
#X obj 764 183 inlet;
#X obj 847 500 inlet;
#X obj 912 544 inlet;
#X obj 552 567 inlet;
#X obj 620 574 inlet;
#X obj 338 575 inlet;
#X obj 406 582 inlet;
#X connect 0 0 1 1;
#X connect 1 0 9 0;
#X connect 2 0 3 1;
#X connect 3 0 9 0;
#X connect 4 0 5 0;
#X connect 5 0 12 0;
#X connect 5 0 13 0;
#X connect 5 2 0 0;
#X connect 5 5 15 0;
#X connect 5 5 14 0;
#X connect 6 0 3 0;
#X connect 7 0 8 0;
#X connect 8 0 6 0;
#X connect 8 0 4 0;
#X connect 8 0 2 0;
#X connect 10 0 9 0;
#X connect 11 0 9 0;
#X connect 12 0 10 0;
#X connect 13 0 11 0;
#X connect 14 0 11 0;
#X connect 15 0 10 0;
#X connect 16 0 8 1;
#X connect 17 0 1 1;
#X connect 18 0 1 2;
#X connect 19 0 10 1;
#X connect 20 0 10 2;
#X connect 21 0 11 1;
#X connect 22 0 11 2;
#X coords 0 976 1 975 85 60 0;
#X restore 458 705 pd Drums;
#X obj 1255 71 metro 200;
#X floatatom 746 442 5 0 0 0 - - -;
#X obj 1299 273 bng 15 250 50 0 empty empty empty 17 7 0 10 -262144
-1 -1;
#X obj 1352 273 bng 15 250 50 0 empty empty empty 17 7 0 10 -262144
-1 -1;
#X obj 1213 126 bng 15 250 50 0 empty empty empty 17 7 0 10 -262144
-1 -1;
#X msg 1347 181 10;
#X msg 1420 201 50;
#X msg 1395 240 90;
#X obj 1255 133 random 70;
#X obj 1270 225 moses 20;
#X obj 681 415 tgl 15 0 empty empty empty 17 7 0 10 -262144 -1 -1 0
1;
#X obj 459 777 *~;
#X obj 1252 276 bng 15 250 50 0 empty empty empty 17 7 0 10 -262144
-1 -1;
#X obj 1058 593 r notes;
#X floatatom 624 411 5 0 0 0 - - -;
#X obj 1056 703 osc~;
#X obj 1205 569 s notes;
#N canvas 191 412 741 523 many-notes 0;
#X obj 85 66 table notes;
#X obj 324 190 tabread notes;
#X floatatom 319 146 5 0 0 0 - - -;
#X floatatom 324 219 5 0 0 0 - - -;
#X obj 303 50 inlet;
#X obj 303 108 bng 15 250 50 0 empty empty empty 17 7 0 10 -262144
-1 -1;
#X obj 61 140 i 0;
#X obj 75 169 + 1;
#X obj 75 198 % 6;
#X text 102 197 Length of seq;
#X text 40 117 SimpleCount;
#X obj 324 247 outlet;
#X obj 303 79 metro 600;
#X obj 441 74 inlet;
#X connect 1 0 3 0;
#X connect 2 0 1 0;
#X connect 3 0 11 0;
#X connect 4 0 12 0;
#X connect 5 0 6 0;
#X connect 6 0 7 0;
#X connect 6 0 2 0;
#X connect 7 0 8 0;
#X connect 8 0 6 1;
#X connect 12 0 5 0;
#X connect 13 0 12 1;
#X restore 1202 487 pd many-notes;
#X floatatom 1204 523 5 0 0 0 - - -;
#X obj 1056 636 mtof;
#X obj 971 408 tgl 15 0 empty empty empty 17 7 0 10 -262144 -1 -1 0
1;
#X msg 1104 328 \; notes 0 60 62 63 65 63 62;
#X msg 1125 405 \; notes 0 58 55 56 79 70;
#X msg 1413 403 \; notes 0 47 45 60 70 63;
#X msg 1566 338 \; notes 0 43 40 48 70 63;
#X obj 410 443 hsl 128 15 400 50 0 0 empty empty Speed -2 -8 0 10 -258113
-262144 -45076 8100 1;
#X msg 1532 250 \; notes 0 60 67 62 68 70 58;
#X obj 1388 346 sel 0 1 2 3 4;
#X text 408 404 Drums;
#X obj 414 478 vsl 30 128 0 1 0 0 empty empty empty 0 -9 0 10 -4032
-1 -1 8300 1;
#X text 563 411 Synth;
#X obj 565 444 hsl 128 15 400 50 0 0 empty empty Speed -2 -8 0 10 -258113
-262144 -45076 0 1;
#X obj 567 481 vsl 30 128 0 1 0 0 empty empty empty 0 -9 0 10 -4032
-1 -1 8000 1;
#X obj 859 479 vsl 30 128 0.01 1 1 1 empty empty empty 0 -9 0 10 -4032
-1 -1 0 1;
#X obj 1056 843 dac~;
#X obj 460 843 dac~;
#X text 857 403 Master;
#X obj 857 438 hsl 128 15 400 50 0 0 empty empty Speed -2 -8 0 10 -258113
-262144 -45076 10000 1;
#X obj 526 406 tgl 15 0 empty empty empty 17 7 0 10 -262144 -1 -1 0
1;
#X obj 825 415 tgl 15 0 empty empty empty 17 7 0 10 -262144 -1 -1 0
1;
#X text 721 412 Randomize;
#X obj 1059 779 *~;
#X obj 1749 833 hsl 48 12 0 2000 0 0 empty empty empty -2 -8 0 10 -228856
-258113 -1 0 1;
#X obj 475 525 hsl 48 12 0 2000 0 0 empty empty Snare -2 -8 0 10 -228856
-258113 -1 0 1;
#X obj 472 587 hsl 48 12 0 200 0 0 empty empty Boop_fine -2 -8 0 10
-228856 -258113 -1 0 1;
#X obj 473 557 hsl 48 12 0 2000 0 0 empty empty Boop_Coarse -2 -8 0
10 -228856 -258113 -1 0 1;
#X obj 474 492 hsl 48 12 0 200 0 0 empty empty Kick -2 -8 0 10 -228856
-258113 -1 0 1;
#N canvas 1155 187 685 449 tremello 0;
#X obj 87 202 *~;
#X obj 128 175 *~ 0.5;
#X obj 240 106 osc~;
#X obj 240 186 tabwrite~ osc_unadjusted;
#X obj 240 210 tabwrite~ osc_adjusted;
#X obj 240 234 tabwrite~ tremelo;
#X obj 258 135 tgl 15 0 empty empty empty 17 7 0 10 -262144 -1 -1 0
1;
#X obj 128 151 +~ 1;
#X obj 258 155 metro 5200;
#X obj 86 257 outlet~;
#X obj 50 97 inlet~;
#X obj 224 36 inlet;
#X connect 0 0 5 0;
#X connect 0 0 9 0;
#X connect 1 0 0 1;
#X connect 1 0 4 0;
#X connect 2 0 3 0;
#X connect 2 0 7 0;
#X connect 6 0 3 0;
#X connect 6 0 8 0;
#X connect 7 0 1 0;
#X connect 8 0 4 0;
#X connect 8 0 5 0;
#X connect 10 0 0 0;
#X connect 11 0 2 0;
#X restore 1571 926 pd tremello;
#X obj 1597 880 tgl 15 0 empty empty empty 17 7 0 10 -262144 -1 -1
0 1;
#X obj 1756 901 hsl 128 15 0 127 0 0 empty empty empty -2 -8 0 10 -262144
-1 -1 0 1;
#X obj 716 480 hsl 128 15 10 90 0 0 empty empty Variation -2 -8 0 10
-257985 -1 -1 4600 1;
#X connect 0 0 12 0;
#X connect 1 0 5 0;
#X connect 1 0 9 0;
#X connect 2 0 10 0;
#X connect 6 0 10 1;
#X connect 7 0 10 1;
#X connect 8 0 10 1;
#X connect 9 0 2 0;
#X connect 10 0 3 0;
#X connect 10 0 13 0;
#X connect 10 0 28 0;
#X connect 10 1 4 0;
#X connect 11 0 18 0;
#X connect 12 0 36 0;
#X connect 12 0 36 1;
#X connect 14 0 15 0;
#X connect 14 0 20 0;
#X connect 15 0 20 0;
#X connect 16 0 42 0;
#X connect 18 0 19 0;
#X connect 19 0 17 0;
#X connect 20 0 16 0;
#X connect 21 0 12 1;
#X connect 21 0 42 1;
#X connect 26 0 0 5;
#X connect 28 0 22 0;
#X connect 28 1 23 0;
#X connect 28 2 24 0;
#X connect 28 3 25 0;
#X connect 28 4 27 0;
#X connect 30 0 12 1;
#X connect 32 0 18 1;
#X connect 33 0 42 1;
#X connect 34 0 12 1;
#X connect 34 0 42 1;
#X connect 38 0 0 5;
#X connect 38 0 18 1;
#X connect 39 0 0 4;
#X connect 40 0 1 0;
#X connect 42 0 35 0;
#X connect 42 0 35 1;
#X connect 43 0 0 6;
#X connect 44 0 0 7;
#X connect 45 0 0 2;
#X connect 46 0 0 3;
#X connect 47 0 0 0;
#X connect 49 0 48 0;
#X connect 50 0 48 1;
#X connect 51 0 10 1;
#X coords 0 -1 1 1 600 220 2 400 400;
#X restore 579 269 pd config;
#X text 797 427 Created: Team Commuters;
#X text 869 381 Beeps and Boops;
#X connect 0 0 1 0;
#X connect 2 0 0 0;
#X coords 0 976 1 975 85 60 0;
