#N canvas 242 94 1107 746 24;
#N canvas -250 252 1920 976 Drums 0;
#N canvas 160 132 1022 719 kik 0;
#X obj 339 167 line~;
#X obj 348 377 osc~;
#X obj 347 236 *~ 400;
#X obj 237 449 *~;
#X obj 354 305 +~;
#X msg 581 283 0.25;
#X obj 232 544 outlet~;
#X obj 349 -3 inlet;
#X obj 690 11 inlet;
#X obj 850 8 inlet;
#X msg 347 90 1 \, 0 \$1;
#X connect 0 0 3 0;
#X connect 0 0 2 0;
#X connect 1 0 3 1;
#X connect 2 0 4 0;
#X connect 3 0 6 0;
#X connect 4 0 1 0;
#X connect 5 0 1 1;
#X connect 7 0 10 0;
#X connect 7 0 5 0;
#X connect 8 0 2 1;
#X connect 9 0 4 1;
#X connect 10 0 0 0;
#X restore 528 998 pd kik;
#X obj 595 965 hsl 48 12 0 200 0 0 empty empty empty -2 -8 0 10 -228856
-258113 -1 0 1;
#X obj 660 965 hsl 48 12 0 2000 0 0 empty empty empty -2 -8 0 10 -228856
-258113 -1 0 1;
#X obj 825 965 bng 15 250 50 0 empty empty empty 17 7 0 10 -262144
-1 -1;
#X obj 896 965 hsl 48 12 0 2000 0 0 empty empty empty -2 -8 0 10 -228856
-258113 -1 0 1;
#X obj 961 998 hsl 48 12 0 2000 0 0 empty empty empty -2 -8 0 10 -228856
-258113 -1 0 1;
#N canvas 407 128 1022 719 snr 0;
#X obj 339 167 line~;
#X obj 232 471 *~;
#X msg 519 281 0.25;
#X obj 232 544 outlet~;
#X obj 374 12 inlet;
#X obj 690 11 inlet;
#X obj 850 8 inlet;
#X msg 676 271 0.25;
#X msg 347 90 1 \, 0 60;
#X obj 657 375 osc~ 380;
#X obj 443 375 osc~ 250;
#X obj 159 219 noise~;
#X obj 443 451 *~ 0.33;
#X connect 0 0 1 0;
#X connect 1 0 3 0;
#X connect 2 0 10 1;
#X connect 4 0 8 0;
#X connect 4 0 2 0;
#X connect 4 0 7 0;
#X connect 5 0 10 0;
#X connect 6 0 9 0;
#X connect 7 0 9 1;
#X connect 8 0 0 0;
#X connect 9 0 12 0;
#X connect 10 0 12 0;
#X connect 11 0 12 0;
#X connect 12 0 1 1;
#X restore 825 989 pd snr;
#X obj 1328 778 bng 15 250 50 0 empty empty empty 17 7 0 10 -262144
-1 -1;
#N canvas 681 126 1022 719 hat 0;
#X obj 339 167 line~;
#X obj 232 471 *~;
#X obj 232 544 outlet~;
#X obj 374 12 inlet;
#X obj 75 292 hip~ 3200;
#X obj 89 389 *~ 0.4;
#X obj 44 150 inlet;
#X obj 159 219 noise~;
#X msg 347 90 1 \, 0 20;
#X connect 0 0 1 0;
#X connect 1 0 2 0;
#X connect 3 0 8 0;
#X connect 4 0 5 0;
#X connect 5 0 1 1;
#X connect 6 0 4 0;
#X connect 7 0 4 0;
#X connect 8 0 0 0;
#X restore 1054 998 pd hat;
#X msg 433 853 80;
#X msg 624 853 600;
#N canvas 0 47 1022 719 count 0;
#X obj 203 117 f;
#X obj 340 133 + 1;
#X obj 202 197 mod 8;
#X obj 193 45 inlet;
#X obj 182 276 outlet;
#X connect 0 0 1 0;
#X connect 0 0 2 0;
#X connect 1 0 0 1;
#X connect 2 0 4 0;
#X connect 3 0 0 0;
#X restore 586 713 pd count;
#X obj 1004 644 hsl 128 15 2 200 0 0 empty empty Speed_Boi -2 -8 0
10 -191407 -258113 -1 0 1;
#X obj 663 617 metro 200;
#X obj 364 737 hsl 128 15 20 1000 0 0 empty empty empty -2 -8 0 10
-262144 -1 -1 0 1;
#X obj 607 778 sel 0 1 2 3 4 5 6 7;
#X obj 1358 902 random 1000;
#X obj 563 1147 outlet~;
#X obj 636 562 inlet;
#X connect 0 0 17 0;
#X connect 1 0 0 1;
#X connect 2 0 0 2;
#X connect 3 0 6 0;
#X connect 4 0 6 1;
#X connect 5 0 6 2;
#X connect 6 0 17 0;
#X connect 7 0 8 1;
#X connect 8 0 17 0;
#X connect 9 0 0 0;
#X connect 10 0 0 0;
#X connect 11 0 15 0;
#X connect 12 0 13 1;
#X connect 13 0 7 0;
#X connect 13 0 11 0;
#X connect 13 0 16 0;
#X connect 14 0 9 0;
#X connect 15 0 9 0;
#X connect 15 2 3 0;
#X connect 15 5 10 0;
#X connect 16 0 8 0;
#X connect 18 0 13 0;
#X coords 0 976 1 975 85 60 0;
#X restore 458 502 pd Drums;
#X obj 463 598 dac~;
#N canvas 757 140 690 738 keys 0;
#X obj 536 529 outlet~;
#X obj 198 75 metro 200;
#X obj 198 130 random 100;
#X floatatom 198 199 5 0 0 0 - - -;
#X obj 198 253 moses 10;
#X obj 227 308 bng 15 250 50 0 empty empty empty 17 7 0 10 -262144
-1 -1;
#X obj 280 315 bng 15 250 50 0 empty empty empty 17 7 0 10 -262144
-1 -1;
#X obj 122 130 bng 15 250 50 0 empty empty empty 17 7 0 10 -262144
-1 -1;
#X obj 170 502 makenote 64 100;
#X obj 165 582 noteout 1;
#X msg 178 366 59 60 66 74;
#X obj 181 430 unpack f f f f;
#X msg 371 365 52 59 67 78;
#X msg 397 8 125;
#X msg 427 192 10;
#X msg 434 243 50;
#X msg 440 297 90;
#N canvas -9 -9 1920 976 drums 0;
#X obj 615 415 bng 15 250 50 0 empty empty empty 17 7 0 10 -262144
-1 -1;
#N canvas 102 40 1022 719 hat 0;
#X obj 339 167 line~;
#X obj 232 471 *~;
#X obj 232 544 outlet~;
#X obj 374 12 inlet;
#X obj 75 292 hip~ 3200;
#X obj 89 389 *~ 0.4;
#X obj 44 150 inlet;
#X obj 159 219 noise~;
#X msg 347 90 1 \, 0 20;
#X connect 0 0 1 0;
#X connect 1 0 2 0;
#X connect 3 0 8 0;
#X connect 4 0 5 0;
#X connect 5 0 1 1;
#X connect 6 0 4 0;
#X connect 7 0 4 0;
#X connect 8 0 0 0;
#X restore 526 536 pd hat;
#X obj 1004 248 hsl 128 15 2 200 0 0 empty empty Speed_Boi -2 -8 0
10 -191407 -258113 -1 0 1;
#X obj 663 221 metro 200;
#X obj 563 751 outlet~;
#X obj 600 155 tgl 15 0 empty empty empty 17 7 0 10 -262144 -1 -1 0
1;
#X connect 0 0 1 1;
#X connect 1 0 4 0;
#X connect 2 0 3 1;
#X connect 3 0 0 0;
#X connect 5 0 3 0;
#X restore 197 14 pd drums;
#X connect 1 0 2 0;
#X connect 1 0 7 0;
#X connect 2 0 3 0;
#X connect 3 0 4 0;
#X connect 4 0 5 0;
#X connect 4 0 10 0;
#X connect 4 1 6 0;
#X connect 4 1 12 0;
#X connect 8 0 9 0;
#X connect 8 1 9 1;
#X connect 10 0 11 0;
#X connect 11 0 8 0;
#X connect 11 1 8 0;
#X connect 11 2 8 0;
#X connect 11 3 8 0;
#X connect 12 0 11 0;
#X connect 13 0 1 1;
#X connect 14 0 4 1;
#X connect 15 0 4 1;
#X connect 16 0 4 1;
#X restore 636 510 pd keys;
#X obj 415 131 metro 200;
#X floatatom 415 255 5 0 0 0 - - -;
#X obj 444 364 bng 15 250 50 0 empty empty empty 17 7 0 10 -262144
-1 -1;
#X obj 497 371 bng 15 250 50 0 empty empty empty 17 7 0 10 -262144
-1 -1;
#X obj 339 186 bng 15 250 50 0 empty empty empty 17 7 0 10 -262144
-1 -1;
#X msg 644 248 10;
#X msg 651 299 50;
#X msg 657 353 90;
#X obj 415 186 random 70;
#X obj 413 309 moses 20;
#X obj 135 238 tgl 15 0 empty empty empty 17 7 0 10 -262144 -1 -1 0
1;
#X connect 0 0 1 0;
#X connect 0 0 1 1;
#X connect 3 0 7 0;
#X connect 3 0 11 0;
#X connect 4 0 12 0;
#X connect 8 0 12 1;
#X connect 9 0 12 1;
#X connect 10 0 12 1;
#X connect 11 0 4 0;
#X connect 12 0 5 0;
#X connect 12 0 0 0;
#X connect 12 1 6 0;
#X connect 13 0 0 0;
#X connect 13 0 3 0;
